<?xml version="1.0" encoding="UTF-8" standalone="no"?>
<!-- Created with Inkscape (http://www.inkscape.org/) -->

<svg
   xmlns:dc="http://purl.org/dc/elements/1.1/"
   xmlns:cc="http://creativecommons.org/ns#"
   xmlns:rdf="http://www.w3.org/1999/02/22-rdf-syntax-ns#"
   xmlns:svg="http://www.w3.org/2000/svg"
   xmlns="http://www.w3.org/2000/svg"
   version="1.0"
   width="130"
   height="22"
   id="svg2">
  <metadata
     id="metadata8">
    <rdf:RDF>
      <cc:Work
         rdf:about="">
        <dc:format>image/svg+xml</dc:format>
        <dc:type
           rdf:resource="http://purl.org/dc/dcmitype/StillImage" />
        <dc:title></dc:title>
      </cc:Work>
    </rdf:RDF>
  </metadata>
  <defs
     id="defs4" />
  <g
     transform="matrix(0.73377773,0,0,0.73377773,0.01850382,1.1618677)"
     id="layer1"
     style="fill:#000000;fill-opacity:1">
    <path
       d="m 16.572432,27.870887 c -0.867034,-0.37219 -0.929061,-0.42609 -1.063955,-0.92454 -0.0885,-0.32699 -0.125666,-1.30201 -0.09725,-2.55091 0.05637,-2.477105 0.05544,-2.478495 -1.258322,-1.89107 -1.369461,0.61233 -2.245421,0.80322 -4.053274,0.88328 -1.908924,0.08453 -3.281896,-0.07492 -4.818942,-0.55966 -3.775218,-1.190565 -5.18808301,-3.046505 -5.21086901,-6.844975 -0.016447,-2.74192 0.606231,-4.25754 3.11049601,-7.5710393 0.608265,-0.80482 1.530651,-1.86413 2.049745,-2.35402 1.842822,-1.73914 5.213548,-4.58774 5.977437,-5.05152 1.474289,-0.89508004 2.871537,-0.95488004 4.459958,-0.19088001 1.080554,0.51972001 1.52046,1.03240001 2.030147,2.36601001 0.377434,0.98755 0.484429,2.98225 0.190462,3.55072 -0.300359,0.58083 -0.747138,0.83739 -1.301561,0.74743 -0.728029,-0.11815 -0.988665,-0.37553 -1.566108,-1.54654 -0.664866,-1.3483 -0.867321,-1.47528 -1.85544,-1.16381 -1.171968,0.36943 -2.535872,1.38898 -4.519564,3.37846 -2.980208,2.9889093 -4.441943,4.9819593 -5.210267,7.1041193 -0.436568,1.20583 -0.436784,1.58447 -0.00125,2.19612 0.414957,0.58275 1.033786,0.8781 2.560442,1.222 0.788605,0.17765 1.591302,0.40443 1.783774,0.50396 0.492269,0.25456 3.375423,0.24321 4.66245,-0.01836 1.314468,-0.26715 2.600518,-0.87011 3.147722,-1.4758 0.443103,-0.49046 0.507688,-0.67663 0.36433,-1.05022 -0.109079,-0.28426 -0.322611,-0.26303 -3.104123,0.3086 -1.364557,0.28042 -2.9538444,0.54657 -3.531748,0.59144 -1.201532,0.09329 -1.333256,0.02696 -1.913761,-0.96359 -0.28561,-0.48736 -0.328096,-0.70113 -0.318268,-1.60144 0.016104,-1.47509 0.291597,-1.98528 1.269621,-2.3512 1.225668,-0.45858 3.018253,-0.85955 6.275827,-1.40377 1.714617,-0.28645 3.375028,-0.57846 3.689802,-0.64891 0.314774,-0.07045 0.85125,-0.08973 1.192169,-0.04284 1.108757,0.15249 1.999718,1.24739 2.45216,3.01344 0.267294,1.04336 0.177418,1.68223 -0.473096,3.36292 -0.293586,0.75852 -0.640705,1.77685 -0.771377,2.26295 -0.39957,1.48642 -0.743956,4.225105 -0.744904,5.923735 -0.0011,1.93711 -0.148894,2.33385 -1.033051,2.77278 -0.929841,0.4616 -1.327287,0.46447 -2.369415,0.01713 z m 93.681838,-3.62845 c -1.41804,-0.25004 -2.93506,-1.01399 -3.86136,-1.94454 -1.32833,-1.334425 -1.84982,-2.746985 -1.83806,-4.978815 0.013,-2.47737 0.65261,-4.37933 2.96234,-8.8095293 0.77597,-1.48835 1.52034,-3.09559 1.65416,-3.57165 0.32519,-1.15683 0.66612,-1.67275 1.3104,-1.98297 0.29479,-0.14194 1.53301,-0.48973 2.75159,-0.77287 1.21859,-0.28313 3.56209,-0.85818 5.20779,-1.27788001 1.6457,-0.4197 3.15263,-0.76309003 3.34876,-0.76309003 0.19612,0 0.57956,0.08922 0.85209,0.19827003 0.46422,0.18574 0.53283,0.28617 1.08613,1.59006001 0.48467,1.14215 0.59596,1.54979 0.62044,2.27256 0.0583,1.7201 -0.0417,1.76195 -7.2974,3.05372 -0.81071,0.14434 -2.20186,0.49512 -3.09144,0.77951 l -1.61743,0.51708 -0.4192,0.6615 c -0.23056,0.3638196 -0.48745,0.8613393 -0.57088,1.1055993 -0.13117,0.38409 -0.12204,0.46578 0.0676,0.60441 0.29205,0.21356 1.29219,0.20232 2.85254,-0.03204 1.95791,-0.29407 2.38987,-0.41488 3.47452,-0.9717297 0.84552,-0.43408 1.04555,-0.49225 1.2734,-0.3703 0.64937,0.34753 1.33191,1.8637997 1.43304,3.1834897 0.0537,0.70105 0.0171,0.92236 -0.23232,1.40475 -0.40972,0.79233 -1.07125,1.10148 -2.71374,1.2682 -0.69984,0.07103 -2.30312,0.29862 -3.56284,0.50574 -1.25972,0.20711 -2.79632,0.42915 -3.41466,0.49341 -1.24783,0.12968 -1.77569,0.39958 -1.841,0.94133 -0.0563,0.46671 0.92537,1.29999 1.77018,1.50266 0.84372,0.2024 1.37198,0.10386 3.13176,-0.58417 0.80783,-0.31585 1.72595,-0.64304 2.04026,-0.72711 l 0.57148,-0.15285 0.42456,0.49114 c 0.92134,1.06584 1.1563,2.98358 0.51927,4.23834 -0.18433,0.363075 -0.52407,0.804245 -0.75499,0.980365 -0.44449,0.33904 -2.0179,1.03887 -2.76497,1.22982 -0.64023,0.16365 -2.19147,0.12574 -3.37198,-0.08241 z m -27.417639,-0.25961 c -0.54015,-0.4545 -0.97507,-1.35852 -1.28851,-2.678295 -0.37526,-1.58002 -0.67147,-2.29517 -1.29645,-3.12996 -0.30268,-0.40428 -0.91862,-1.40633 -1.36876,-2.22677 -0.94482,-1.72206 -1.30951,-2.16565 -1.58944,-1.93332 -0.38467,0.31924 -1.12187,3.26331 -1.46474,5.84948 -0.20674,1.55947 -0.48325,2.481985 -0.84596,2.822455 -0.60578,0.56863 -2.16932,0.2732 -2.91872,-0.551475 -0.94674,-1.04185 -0.99135,-2.45274 -0.19452,-6.15193 0.75758,-3.51698 0.89031,-4.39415 1.05877,-6.9971793 0.12278,-1.89708 0.12022,-2.43865 -0.01341,-2.84358 -0.11383,-0.34491 -0.14908,-1.01367 -0.11355,-2.15426 0.04928,-1.58161 0.06785,-1.6776 0.42394,-2.19144 0.76963,-1.11057001 1.47423,-1.33117001 3.05476,-0.95638001 0.87442,0.20735001 1.36312,0.64653001 1.58619,1.42548001 0.07623,0.26617 0.19993,1.34147 0.27488,2.38954 0.16602,2.32126 0.33408,2.81541 1.45075,4.26576 0.45802,0.5948696 1.06763,1.4251393 1.35471,1.8450393 0.62143,0.90897 1.24278,1.59056 1.44997,1.59056 0.20395,0 0.30072,-0.8717 0.43082,-3.8809593 0.13043,-3.01694 0.46392,-6.60209 0.64571,-6.94177 0.18317,-0.34226 0.53768,-0.50202 1.11396,-0.50202 0.86299,0 2.05902,1.0196 2.25783,1.92478 l 0.08049,0.36647 0.72192,-0.56718 c 1.32178,-1.03844 4.12547,-1.85316001 4.95433,-1.43967 0.36251,0.18085 0.40874,0.17002 1.06307,-0.24905 0.65373,-0.41869001 0.72075,-0.43444001 1.51116,-0.35509001 0.45489,0.04568 1.85776,0.07846 3.11748,0.07286 3.963779,-0.01761 5.842079,0.39410001 6.820929,1.49511001 1.08429,1.21962 2.01915,3.89086 1.83429,5.24123 -0.12303,0.89872 -0.75696,2.0536096 -1.66644,3.0359293 -1.44323,1.55883 -2.66949,2.23798 -6.288929,3.48306 -1.17322,0.40358 -1.21361,0.4305 -1.37141,0.9138 -0.36801,1.12712 -0.66445,3.57696 -0.66448,5.49123 -3e-5,2.268725 -0.171,3.036045 -0.79313,3.559535 -0.35974,0.3027 -0.4836,0.33473 -1.06324,0.2749 -1.0088,-0.10411 -1.59237,-0.46505 -2.03037,-1.25575 -0.3568,-0.64413 -0.37565,-0.75336 -0.36972,-2.142045 0.0034,-0.80482 0.05521,-2.22631 0.11507,-3.15886 l 0.10882,-1.69555 -1.09392,-1.10383 c -0.91671,-0.925 -1.11882,-1.2043 -1.24755,-1.72403 -0.16941,-0.68399 -0.0074,-1.97225 0.33012,-2.62494 0.2859,-0.55286 0.99982,-1.0992197 1.55164,-1.1874597 0.80556,-0.1288096 0.92169,-0.3544196 1.01413,-1.9700896 0.07258,-1.26851 0.05815,-1.42482 -0.13855,-1.5003 -0.39003,-0.14967 -1.81463,0.1723 -2.86924,0.64847 -1.47064,0.66401 -1.74886,0.68634 -2.58578,0.2075 -0.38141,-0.21822 -0.72762,-0.39677 -0.76936,-0.39677 -0.04173,0 -0.15438,0.14984 -0.25034,0.33298 -0.14833,0.28309 -0.14714,0.44987 0.0079,1.11338 0.22982,0.98333 0.14244,5.5541893 -0.15432,8.0722993 -0.17883,1.51748 -0.17956,1.77019 -0.007,2.43601 0.38126,1.47134 0.17804,3.894155 -0.42028,5.010645 -0.43143,0.80506 -0.78953,0.97614 -2.04327,0.97614 -0.9099,0 -1.05552,-0.03451 -1.41226,-0.33469 z M 99.194691,8.6627927 c 1.002719,-0.34499 2.392529,-1.18349 2.717069,-1.63926 0.47269,-0.66384 0.28056,-1.09137 -0.62821,-1.39785 -0.51099,-0.17233 -3.514279,-0.42738 -3.834769,-0.32566 -0.40362,0.12811 -0.40063,0.37242 0.03144,2.57108 0.14051,0.71504 0.37607,1.04985 0.73864,1.04985 0.12401,0 0.56314,-0.11617 0.97583,-0.25816 z M 25.117921,24.009787 c -0.215392,-0.09379 -0.571669,-0.38896 -0.791729,-0.65593 -0.838011,-1.01665 -1.068531,-2.539785 -0.739244,-4.884465 0.304065,-2.16509 0.283581,-2.44458 -0.228317,-3.1152 -0.692224,-0.90686 -0.831714,-2.46129 -0.305661,-3.40623 0.283168,-0.50865 0.441839,-0.60638 1.288812,-0.79385 0.449212,-0.09943 0.76096,-0.75689 1.103481,-2.3271993 0.373191,-1.71092 0.367446,-1.99151 -0.04932,-2.40828 -0.603555,-0.60356 -0.772131,-1.0457 -0.768208,-2.01486 0.0028,-0.68008 0.08006,-1.0562 0.326934,-1.59055 0.831571,-1.79993 1.970025,-2.34853001 4.881181,-2.35213001 1.456642,-0.0018 1.566611,0.0169 2.388863,0.40639 2.629632,1.24560001 4.703762,5.42122001 4.198942,8.45327961 -0.20361,1.2229397 -0.99941,3.0873497 -1.85402,4.3436397 l -0.764644,1.12403 0.250764,0.3428 c 0.13791,0.18854 1.03246,0.86198 1.98787,1.49653 0.95542,0.63455 1.8595,1.26441 2.00909,1.39969 0.47261,0.42742 0.79277,1.21239 0.80394,1.97111 0.0098,0.66692 -0.0322,0.76639 -0.73763,1.74614 -1.03895,1.442965 -1.05022,1.450865 -2.08103,1.457315 -1.08902,0.0068 -1.24938,-0.09203 -2.49698,-1.539135 -0.526384,-0.61056 -1.403604,-1.49117 -1.949381,-1.9569 -1.228886,-1.04866 -3.133756,-2.3869 -3.397536,-2.3869 -0.108215,0 -0.295252,0.18609 -0.415635,0.41354 -0.255469,0.48268 -0.282761,1.32441 -0.120876,3.72803 0.09947,1.476875 0.08694,1.708835 -0.113344,2.099535 -0.123842,0.24157 -0.288753,0.48129 -0.366469,0.5327 -0.235248,0.15564 -1.641894,0.09889 -2.059849,-0.0831 z M 31.090556,9.8006923 c 1.146017,-1.0087696 1.569586,-2.6190196 0.937718,-3.5648696 -0.374696,-0.56088 -1.033922,-0.8933 -1.68345,-0.84889 l -0.508978,0.0348 -0.0894,1.39969 c -0.04917,0.76983 -0.168944,1.92886 -0.26616,2.5756296 -0.09722,0.6467697 -0.152661,1.2000397 -0.123214,1.2294797 0.13915,0.13915 1.224752,-0.37803 1.733489,-0.8258397 z M 45.632671,23.924197 c -0.61427,-0.12531 -2.68126,-0.96165 -3.88799,-1.57315 -0.94845,-0.480605 -1.61671,-1.512195 -2.17915,-3.363895 -0.53195,-1.75132 -0.2143,-4.33661 0.88523,-7.20464 0.27256,-0.71095 0.47757,-1.05746 0.67756,-1.1452 0.2275,-0.09981 0.28676,-0.2291 0.28676,-0.62563 0,-0.4422997 -0.04184,-0.5110097 -0.36359,-0.5970597 -0.86328,-0.2308796 -1.36423,-1.2550796 -1.36761,-2.7961096 -0.0037,-1.66436 0.54713,-2.49346 1.85051,-2.78556 0.33131,-0.07424 0.81451,-0.24321 1.07377,-0.37548 1.32275,-0.67481 9.59588,-2.54257001 10.50595,-2.37184 0.78646,0.14754 1.26317,0.70263 1.89714,2.20906 0.71433,1.69737 0.78433,1.97982 0.6006,2.42337 -0.19259,0.46495 -0.71391,0.76088 -1.62431,0.92205 -0.4063,0.07193 -0.9964,0.21145 -1.31133,0.31004 -0.31493,0.0986 -1.101,0.26897 -1.74681,0.37862 -2.7665,0.46968 -5.0227,1.24644 -5.42254,1.86686 -0.1056,0.1638496 -0.23031,0.5077096 -0.27714,0.7641296 -0.1577,0.8635297 0.46298,0.8836897 3.31105,0.1075797 1.55472,-0.4236697 2.67167,-0.4883997 3.25174,-0.1884297 1.07447,0.5556297 2.13638,4.0386697 1.42449,4.6722997 -0.39786,0.35412 -1.58564,0.61196 -3.40379,0.73887 -1.90541,0.133 -2.41087,0.2123 -4.55772,0.71505 -1.17689,0.2756 -1.39711,0.36735 -1.51788,0.63242 -0.23272,0.51076 0.0086,0.96341 0.6059,1.13633 0.27959,0.08095 0.70849,0.26919 0.95311,0.41831 0.61418,0.37441 1.31317,0.34429 2.5443,-0.10965 0.56943,-0.20995 1.11531,-0.38173 1.21308,-0.38173 0.34599,0 1.0774,0.79601 1.47672,1.60716 0.89846,1.82503 0.30835,3.714545 -1.39028,4.451615 -0.57282,0.24856 -2.62433,0.34483 -3.50777,0.16461 z m 15.12356,-0.07449 c -1.50526,-0.3345 -2.55069,-0.63975 -3.20956,-0.93715 -0.68675,-0.30998 -0.86124,-0.46431 -1.31407,-1.162225 -0.71661,-1.10446 -1.48352,-2.7395 -1.7225,-3.67233 -0.22203,-0.86665 -0.21638,-0.92805 0.35087,-3.81236 0.48246,-2.45322 0.7295,-3.26079 1.53768,-5.0265793 0.57848,-1.26392 0.65686,-1.54612 0.80802,-2.90928 0.20461,-1.84523 0.33406,-2.26104 0.783,-2.51526 0.79143,-0.44815 2.84456,-1.11834 3.97538,-1.29766 0.66485,-0.10543 2.06772,-0.40141 3.11748,-0.65773 2.14006,-0.52255 4.05552,-0.70294 4.81223,-0.45321 0.25305,0.08352 0.59716,0.31475 0.7647,0.51385 0.55029,0.65399 1.35793,2.26111 1.35718,2.70069 -0.0011,0.63961 -0.23842,1.3567 -0.49437,1.49368 -0.1262,0.06754 -1.5351,0.27315 -3.13088,0.45691 -2.97872,0.343 -4.18976,0.58577 -5.49039,1.10063 -0.66635,0.26377 -0.77871,0.36316 -1.0632,0.94049 -0.17496,0.35506 -0.42435,0.8060296 -0.55421,1.0021496 -0.19333,0.292 -0.20485,0.37639 -0.06362,0.4658897 0.56576,0.35849 3.69708,-0.2276797 4.90345,-0.9178993 0.61737,-0.35322 0.7182,-0.37471 1.12609,-0.2401 0.96927,0.31989 1.64627,1.2531093 2.04875,2.8241393 0.21576,0.84221 0.1752,1.63725 -0.10066,1.97272 -0.42332,0.51481 -2.84414,1.32247 -4.4968,1.50026 -0.41991,0.04517 -0.93525,0.16123 -1.1452,0.2579 -0.20995,0.09667 -1.29686,0.30364 -2.41534,0.45993 -1.72233,0.24067 -2.07778,0.32834 -2.32221,0.57277 -0.37584,0.37584 -0.36428,0.6039 0.04701,0.92742 0.49708,0.39101 1.49943,0.64519 2.54422,0.64519 1.28672,0 2.1102,-0.20457 2.86318,-0.71129 0.35463,-0.23865 0.74761,-0.43391 0.8733,-0.43391 0.31809,0 0.99444,0.80774 1.37814,1.64586 0.38606,0.84325 0.5209,2.37742 0.27607,3.14091 -0.37122,1.157575 -1.05781,1.664455 -2.71719,2.005935 -0.9209,0.18951 -2.72088,0.25426 -3.32655,0.11966 z m 72.656519,-0.0053 c -0.499,-0.12123 -1.11698,-0.71871 -1.41368,-1.36677 -0.3189,-0.696585 -0.55083,-2.337205 -0.55835,-3.949765 -0.002,-0.48989 -0.0581,-0.97607 -0.12407,-1.08039 -0.27386,-0.43316 -3.15757,-0.25186 -5.06326,0.31832 -0.80191,0.23994 -0.99841,0.50935 -2.00155,2.74422 -0.74501,1.659795 -1.29072,2.505035 -1.81871,2.816925 -0.33754,0.19939 -0.37935,0.18945 -1.36462,-0.32441 -0.96256,-0.502 -1.02825,-0.56381 -1.23969,-1.166315 -0.15751,-0.44886 -0.21373,-0.94069 -0.19087,-1.67011 0.0314,-1.00222 0.0508,-1.06067 0.63275,-1.90866 0.75427,-1.09909 1.17921,-2.0516 1.93946,-4.34728 0.46612,-1.40749 0.67291,-1.86467 0.91524,-2.02345 0.48623,-0.3186 0.93528,-1.05314 2.59662,-4.2475293 2.11685,-4.07025 3.00701,-5.34719 4.48712,-6.43678 0.65487,-0.48209001 0.83327,-0.55237001 1.402,-0.55237001 0.63428,0 0.67222,0.02149 1.42241,0.80563001 1.40193,1.46539 2.28987,3.72126 2.67863,6.80521 0.11192,0.88791 0.24191,1.7798893 0.28887,1.9821993 l 0.0854,0.36782 0.4068,-0.34231 c 0.22375,-0.18827 0.69874,-0.8524397 1.05554,-1.4759293 0.98122,-1.71466 2.80082,-3.25743 5.32153,-4.51194 2.25483,-1.12219 4.15127,-1.59477 6.39965,-1.59477 1.62903,0 1.98847,0.11904 2.74161,0.90798 0.98824,1.03525 1.43829,2.3509 1.45873,4.26436 0.0149,1.39347 -0.20105,2.1388696 -0.87594,3.0235993 -0.72919,0.95591 -1.06804,1.15725 -1.93915,1.15223 -1.0522,-0.0061 -2.39087,-0.6861 -2.62167,-1.33178 -0.22027,-0.61626 -0.21257,-1.8639593 0.0155,-2.5188793 0.14437,-0.41446 0.15644,-0.61001 0.05,-0.80897 -0.125,-0.23358 -0.23479,-0.25704 -1.00035,-0.21378 -1.10048,0.06218 -2.3953,0.68103 -3.59989,1.72053 -1.58939,1.3715893 -2.5325,2.8021093 -2.80171,4.2496793 -0.17508,0.94142 0.0334,1.31712 1.24309,2.24055 1.5828,1.20824 3.85251,2.14434 5.55562,2.29134 1.06384,0.09182 1.79161,-0.12911 3.31746,-1.00709 1.222,-0.70315 1.12223,-0.7061 1.95233,0.05774 0.34887,0.32102 0.41201,0.33964 0.55742,0.16443 0.0917,-0.11052 0.20385,-0.74375 0.25443,-1.43696 0.10903,-1.49414 0.59577,-3.16097 1.66631,-5.7063197 0.66441,-1.5797196 0.75488,-1.8955696 0.75488,-2.6355496 0,-1.08538 0.38332,-2.12431 1.01795,-2.75894 0.72528,-0.72528 1.63041,-1.00306 4.18235,-1.28354 1.21554,-0.1336 2.9906,-0.38802 3.94457,-0.56538 0.95399,-0.17736 2.36438,-0.37243 3.13421,-0.43349 0.76983,-0.06106 1.60366,-0.19863 1.85297,-0.30572 0.53518,-0.22987 2.73418,-0.79311001 3.56396,-0.91285001 1.88678,-0.27225 3.40497,1.40535001 3.52891,3.89945001 0.0571,1.14859 -0.10486,1.94408 -0.4204,2.06516 -0.0982,0.03767 -0.59642,-0.04809 -1.10723,-0.19058 -0.89498,-0.24966 -0.96345,-0.25141 -1.88308,-0.04816 -0.60598,0.13394 -2.06398,0.25517 -3.99425,0.33213 -1.67195,0.06667 -3.38975,0.17447 -3.81733,0.23956 -2.56633,0.39069 -4.43752,0.77826 -4.90229,1.01536 -0.68874,0.35137 -1.02744,0.91277 -1.02805,1.7040396 l -4.7e-4,0.6170597 2.70394,-0.05625 c 1.96245,-0.04083 2.86728,-0.10994 3.29954,-0.25204 0.55037,-0.1809197 0.62358,-0.1787497 0.96447,0.02855 0.50451,0.30681 1.11625,1.06985 1.53017,1.90861 0.28182,0.57108 0.34328,0.86373 0.33399,1.59055 -0.0222,1.74181 -0.41072,2.41451 -1.62275,2.81003 -1.20626,0.39364 -1.19532,0.37178 -0.53785,1.07467 0.49489,0.52907 0.58325,0.70287 0.59375,1.16782 0.0347,1.53708 -0.10301,2.19325 -0.59998,2.85904 -0.37053,0.4964 -1.20339,0.821815 -2.84795,1.112775 -0.66485,0.11762 -1.48955,0.30433 -1.83265,0.41491 -1.16851,0.3766 -3.73862,-0.04933 -5.49542,-0.9107 -0.8544,-0.418915 -1.18331,-0.710585 -2.36935,-2.101145 -0.18972,-0.22245 -0.4027,-0.36875 -0.47329,-0.32513 -0.0706,0.04362 -0.39365,0.56606 -0.71793,1.16096 -1.1618,2.131325 -1.91269,2.772105 -3.4334,2.929915 -1.36337,0.14149 -3.80873,-0.47664 -6.15627,-1.55615 -2.09961,-0.965495 -4.89721,-3.172965 -5.91187,-4.664805 -0.70037,-1.02976 -1.16876,-1.53875 -1.32638,-1.44133 -0.30835,0.19057 -0.41184,1.146 -0.37676,3.47851 0.0344,2.2858 0.0228,2.41776 -0.26804,3.061465 -0.47411,1.04921 -1.04425,1.34079 -2.11367,1.08099 z m 28.1326,-5.951385 c 0.34355,-0.10421 0.9888,-0.1901 1.43391,-0.19086 0.66272,-0.0011 0.94592,-0.07421 1.56378,-0.40352 0.47938,-0.25551 0.71019,-0.44647 0.63296,-0.52369 -0.0673,-0.06731 -1.5942,-0.15155 -3.42226,-0.18881 -3.24952,-0.06624 -3.30497,-0.06305 -3.5736,0.20557 -0.40582,0.40582 -0.33558,0.60958 0.2929,0.84959 1.2371,0.47246 2.10915,0.54391 3.07231,0.25172 z m -30.30942,-6.85192 c 0.35712,-0.23398 0.4557,-0.73502 0.45763,-2.3256993 0.001,-0.98203 -0.039,-1.21125 -0.26233,-1.49512 -0.14505,-0.1844 -0.35977,-0.33506 -0.47717,-0.33479 -0.28963,6.5e-4 -1.92247,3.1742493 -2.02293,3.9317893 l -0.0743,0.5603 1.04177,-0.0714 c 0.60515,-0.04148 1.16564,-0.15258 1.33733,-0.26508 z"
       id="path2499"
       style="fill:#000000;fill-opacity:1" />
  </g>
</svg>
