<?xml version="1.0" encoding="UTF-8" standalone="no"?>
<!-- Created with Inkscape (http://www.inkscape.org/) -->

<svg
   xmlns:dc="http://purl.org/dc/elements/1.1/"
   xmlns:cc="http://creativecommons.org/ns#"
   xmlns:rdf="http://www.w3.org/1999/02/22-rdf-syntax-ns#"
   xmlns:svg="http://www.w3.org/2000/svg"
   xmlns="http://www.w3.org/2000/svg"
   version="1.1"
   width="64"
   height="64"
   id="svg2">
  <defs
     id="defs4" />
  <metadata
     id="metadata7">
    <rdf:RDF>
      <cc:Work
         rdf:about="">
        <dc:format>image/svg+xml</dc:format>
        <dc:type
           rdf:resource="http://purl.org/dc/dcmitype/StillImage" />
        <dc:title></dc:title>
      </cc:Work>
    </rdf:RDF>
  </metadata>
  <g
     transform="translate(0,-988.36218)"
     id="layer1">
    <path
       d="m 30.276743,988.56584 c -19.42145,0.0813 -34.1872602,20.94826 -29.35189021,39.46876 3.53622001,14.4406 18.59956021,25.2374 33.41944021,24.267 14.75936,-1.587 27.63634,-13.5402 29.40171,-28.3448 2.53813,-18.9325 -14.32914,-37.07594 -33.46926,-35.39096 z m 0.86475,6.11734 c 14.9923,-1.97515 28.18989,12.47642 26.93555,27.09572 -0.33647,17.3752 -21.20298,30.4227 -36.96031,22.0993 C 8.1540628,1038.1686 0.60197279,1020.1129 9.2343428,1007.7506 13.772863,999.62427 21.625023,994.14348 31.141493,994.68318 z m -12.74714,17.93572 c -4.05352,0.8005 -5.20546,6.1557 -1.66546,8.5515 4.77505,4.4147 8.80645,10.5418 14.86099,13.1635 6.56543,-3.5358 11.58276,-9.7935 16.43037,-15.4375 2.53728,-4.1462 -4.06453,-7.7582 -6.82196,-4.0676 -3.22957,2.6898 -6.06775,5.8783 -9.16001,8.8077 -4.55216,-3.1375 -7.82184,-10.3279 -13.64393,-11.0176 z"
       id="path3126-6"
       style="fill:#ffffff" />
  </g>
</svg>
